<mxfile host="app.diagrams.net" modified="2023-10-06T03:59:59.443Z" agent="Mozilla/5.0 (Macintosh; Intel Mac OS X 10_15_7) AppleWebKit/605.1.15 (KHTML, like Gecko) Version/17.0 Safari/605.1.15" etag="uXokcoDb02hgWER8519g" version="22.0.3" type="device">
  <diagram name="Page-1" id="UqVrwzHWl2GHEcBXxez4">
    <mxGraphModel dx="1207" dy="847" grid="1" gridSize="10" guides="1" tooltips="1" connect="1" arrows="1" fold="1" page="1" pageScale="1" pageWidth="1100" pageHeight="1700" math="0" shadow="0">
      <root>
        <mxCell id="0" />
        <mxCell id="1" parent="0" />
        <mxCell id="txtTi3-NWhlHxe_iq4ro-22" value="" style="rounded=0;whiteSpace=wrap;html=1;" vertex="1" parent="1">
          <mxGeometry x="140" y="50" width="660" height="1200" as="geometry" />
        </mxCell>
        <mxCell id="txtTi3-NWhlHxe_iq4ro-12" style="rounded=0;orthogonalLoop=1;jettySize=auto;html=1;exitX=1;exitY=0.3333333333333333;exitDx=0;exitDy=0;exitPerimeter=0;entryX=0;entryY=0.5;entryDx=0;entryDy=0;endArrow=none;endFill=0;" edge="1" parent="1" source="txtTi3-NWhlHxe_iq4ro-1" target="txtTi3-NWhlHxe_iq4ro-3">
          <mxGeometry relative="1" as="geometry" />
        </mxCell>
        <mxCell id="txtTi3-NWhlHxe_iq4ro-13" style="rounded=0;orthogonalLoop=1;jettySize=auto;html=1;exitX=1;exitY=0.3333333333333333;exitDx=0;exitDy=0;exitPerimeter=0;entryX=0;entryY=0.5;entryDx=0;entryDy=0;endArrow=none;endFill=0;" edge="1" parent="1" source="txtTi3-NWhlHxe_iq4ro-1" target="txtTi3-NWhlHxe_iq4ro-4">
          <mxGeometry relative="1" as="geometry" />
        </mxCell>
        <mxCell id="txtTi3-NWhlHxe_iq4ro-14" style="rounded=0;orthogonalLoop=1;jettySize=auto;html=1;exitX=1;exitY=0.3333333333333333;exitDx=0;exitDy=0;exitPerimeter=0;entryX=0;entryY=0.5;entryDx=0;entryDy=0;endArrow=none;endFill=0;" edge="1" parent="1" source="txtTi3-NWhlHxe_iq4ro-1" target="txtTi3-NWhlHxe_iq4ro-5">
          <mxGeometry relative="1" as="geometry" />
        </mxCell>
        <mxCell id="txtTi3-NWhlHxe_iq4ro-15" style="rounded=0;orthogonalLoop=1;jettySize=auto;html=1;exitX=1;exitY=0.3333333333333333;exitDx=0;exitDy=0;exitPerimeter=0;entryX=0;entryY=0.5;entryDx=0;entryDy=0;endArrow=none;endFill=0;" edge="1" parent="1" source="txtTi3-NWhlHxe_iq4ro-1" target="txtTi3-NWhlHxe_iq4ro-6">
          <mxGeometry relative="1" as="geometry" />
        </mxCell>
        <mxCell id="txtTi3-NWhlHxe_iq4ro-16" style="rounded=0;orthogonalLoop=1;jettySize=auto;html=1;exitX=1;exitY=0.3333333333333333;exitDx=0;exitDy=0;exitPerimeter=0;entryX=0;entryY=0.5;entryDx=0;entryDy=0;endArrow=none;endFill=0;" edge="1" parent="1" source="txtTi3-NWhlHxe_iq4ro-1" target="txtTi3-NWhlHxe_iq4ro-7">
          <mxGeometry relative="1" as="geometry" />
        </mxCell>
        <mxCell id="txtTi3-NWhlHxe_iq4ro-17" style="rounded=0;orthogonalLoop=1;jettySize=auto;html=1;exitX=1;exitY=0.3333333333333333;exitDx=0;exitDy=0;exitPerimeter=0;entryX=0;entryY=0.5;entryDx=0;entryDy=0;endArrow=none;endFill=0;" edge="1" parent="1" source="txtTi3-NWhlHxe_iq4ro-1" target="txtTi3-NWhlHxe_iq4ro-8">
          <mxGeometry relative="1" as="geometry" />
        </mxCell>
        <mxCell id="txtTi3-NWhlHxe_iq4ro-18" style="rounded=0;orthogonalLoop=1;jettySize=auto;html=1;exitX=1;exitY=0.3333333333333333;exitDx=0;exitDy=0;exitPerimeter=0;entryX=0;entryY=0.5;entryDx=0;entryDy=0;endArrow=none;endFill=0;" edge="1" parent="1" source="txtTi3-NWhlHxe_iq4ro-1" target="txtTi3-NWhlHxe_iq4ro-9">
          <mxGeometry relative="1" as="geometry" />
        </mxCell>
        <mxCell id="txtTi3-NWhlHxe_iq4ro-30" style="rounded=0;orthogonalLoop=1;jettySize=auto;html=1;exitX=1;exitY=0.3333333333333333;exitDx=0;exitDy=0;exitPerimeter=0;entryX=0;entryY=0.5;entryDx=0;entryDy=0;endArrow=none;endFill=0;" edge="1" parent="1" source="txtTi3-NWhlHxe_iq4ro-1" target="txtTi3-NWhlHxe_iq4ro-11">
          <mxGeometry relative="1" as="geometry" />
        </mxCell>
        <mxCell id="txtTi3-NWhlHxe_iq4ro-1" value="healthcare&lt;br&gt;provider" style="shape=umlActor;verticalLabelPosition=bottom;verticalAlign=top;html=1;outlineConnect=0;" vertex="1" parent="1">
          <mxGeometry x="70" y="500" width="30" height="60" as="geometry" />
        </mxCell>
        <mxCell id="txtTi3-NWhlHxe_iq4ro-3" value="Login" style="ellipse;whiteSpace=wrap;html=1;" vertex="1" parent="1">
          <mxGeometry x="365" y="170" width="120" height="80" as="geometry" />
        </mxCell>
        <mxCell id="txtTi3-NWhlHxe_iq4ro-4" value="add_patient_info" style="ellipse;whiteSpace=wrap;html=1;" vertex="1" parent="1">
          <mxGeometry x="365" y="290" width="120" height="80" as="geometry" />
        </mxCell>
        <mxCell id="txtTi3-NWhlHxe_iq4ro-5" value="view_patient_info" style="ellipse;whiteSpace=wrap;html=1;" vertex="1" parent="1">
          <mxGeometry x="365" y="420" width="120" height="80" as="geometry" />
        </mxCell>
        <mxCell id="txtTi3-NWhlHxe_iq4ro-6" value="list_all_patients_info" style="ellipse;whiteSpace=wrap;html=1;" vertex="1" parent="1">
          <mxGeometry x="365" y="540" width="120" height="80" as="geometry" />
        </mxCell>
        <mxCell id="txtTi3-NWhlHxe_iq4ro-7" value="add_clinical_tests" style="ellipse;whiteSpace=wrap;html=1;" vertex="1" parent="1">
          <mxGeometry x="365" y="660" width="120" height="80" as="geometry" />
        </mxCell>
        <mxCell id="txtTi3-NWhlHxe_iq4ro-8" value="view_clinical_tests" style="ellipse;whiteSpace=wrap;html=1;" vertex="1" parent="1">
          <mxGeometry x="365" y="770" width="120" height="80" as="geometry" />
        </mxCell>
        <mxCell id="txtTi3-NWhlHxe_iq4ro-9" value="delete_patient_info" style="ellipse;whiteSpace=wrap;html=1;" vertex="1" parent="1">
          <mxGeometry x="365" y="880" width="120" height="80" as="geometry" />
        </mxCell>
        <mxCell id="txtTi3-NWhlHxe_iq4ro-10" value="delete_clinical_tests&lt;br&gt;_data" style="ellipse;whiteSpace=wrap;html=1;" vertex="1" parent="1">
          <mxGeometry x="365" y="990" width="120" height="80" as="geometry" />
        </mxCell>
        <mxCell id="txtTi3-NWhlHxe_iq4ro-11" value="identify_critical&lt;br&gt;_patients" style="ellipse;whiteSpace=wrap;html=1;" vertex="1" parent="1">
          <mxGeometry x="365" y="1100" width="120" height="80" as="geometry" />
        </mxCell>
        <mxCell id="txtTi3-NWhlHxe_iq4ro-19" style="rounded=0;orthogonalLoop=1;jettySize=auto;html=1;exitX=1;exitY=0.3333333333333333;exitDx=0;exitDy=0;exitPerimeter=0;entryX=0;entryY=0.5;entryDx=0;entryDy=0;endArrow=none;endFill=0;" edge="1" parent="1" source="txtTi3-NWhlHxe_iq4ro-1" target="txtTi3-NWhlHxe_iq4ro-10">
          <mxGeometry relative="1" as="geometry" />
        </mxCell>
        <mxCell id="txtTi3-NWhlHxe_iq4ro-25" style="edgeStyle=orthogonalEdgeStyle;rounded=0;orthogonalLoop=1;jettySize=auto;html=1;exitX=0;exitY=0.3333333333333333;exitDx=0;exitDy=0;exitPerimeter=0;entryX=1;entryY=0.5;entryDx=0;entryDy=0;dashed=1;" edge="1" parent="1" source="txtTi3-NWhlHxe_iq4ro-23" target="txtTi3-NWhlHxe_iq4ro-3">
          <mxGeometry relative="1" as="geometry" />
        </mxCell>
        <mxCell id="txtTi3-NWhlHxe_iq4ro-23" value="authentication&lt;br&gt;service" style="shape=umlActor;verticalLabelPosition=bottom;verticalAlign=top;html=1;outlineConnect=0;" vertex="1" parent="1">
          <mxGeometry x="850" y="390" width="30" height="60" as="geometry" />
        </mxCell>
        <mxCell id="txtTi3-NWhlHxe_iq4ro-26" style="edgeStyle=orthogonalEdgeStyle;rounded=0;orthogonalLoop=1;jettySize=auto;html=1;exitX=0;exitY=0.3333333333333333;exitDx=0;exitDy=0;exitPerimeter=0;entryX=1;entryY=0.5;entryDx=0;entryDy=0;dashed=1;" edge="1" parent="1" source="txtTi3-NWhlHxe_iq4ro-24" target="txtTi3-NWhlHxe_iq4ro-4">
          <mxGeometry relative="1" as="geometry">
            <Array as="points">
              <mxPoint x="660" y="680" />
              <mxPoint x="660" y="330" />
            </Array>
          </mxGeometry>
        </mxCell>
        <mxCell id="txtTi3-NWhlHxe_iq4ro-29" value="&amp;lt;&amp;lt;include&amp;gt;&amp;gt;" style="edgeLabel;html=1;align=center;verticalAlign=middle;resizable=0;points=[];" vertex="1" connectable="0" parent="txtTi3-NWhlHxe_iq4ro-26">
          <mxGeometry x="0.782" y="4" relative="1" as="geometry">
            <mxPoint as="offset" />
          </mxGeometry>
        </mxCell>
        <mxCell id="txtTi3-NWhlHxe_iq4ro-27" style="edgeStyle=orthogonalEdgeStyle;rounded=0;orthogonalLoop=1;jettySize=auto;html=1;exitX=0;exitY=0.3333333333333333;exitDx=0;exitDy=0;exitPerimeter=0;entryX=1;entryY=0.5;entryDx=0;entryDy=0;dashed=1;" edge="1" parent="1" source="txtTi3-NWhlHxe_iq4ro-24" target="txtTi3-NWhlHxe_iq4ro-7">
          <mxGeometry relative="1" as="geometry">
            <Array as="points">
              <mxPoint x="660" y="680" />
              <mxPoint x="660" y="700" />
            </Array>
          </mxGeometry>
        </mxCell>
        <mxCell id="txtTi3-NWhlHxe_iq4ro-28" value="&amp;lt;&amp;lt;inckude&amp;gt;&amp;gt;" style="edgeLabel;html=1;align=center;verticalAlign=middle;resizable=0;points=[];" vertex="1" connectable="0" parent="txtTi3-NWhlHxe_iq4ro-27">
          <mxGeometry x="0.4723" y="2" relative="1" as="geometry">
            <mxPoint x="-1" as="offset" />
          </mxGeometry>
        </mxCell>
        <mxCell id="txtTi3-NWhlHxe_iq4ro-24" value="data validation&lt;br&gt;service" style="shape=umlActor;verticalLabelPosition=bottom;verticalAlign=top;html=1;outlineConnect=0;" vertex="1" parent="1">
          <mxGeometry x="850" y="650" width="30" height="60" as="geometry" />
        </mxCell>
      </root>
    </mxGraphModel>
  </diagram>
</mxfile>
